<?xml version="1.0" encoding="utf-8" standalone="no"?>
<!DOCTYPE svg PUBLIC "-//W3C//DTD SVG 1.1//EN"
  "http://www.w3.org/Graphics/SVG/1.1/DTD/svg11.dtd">
<svg xmlns:xlink="http://www.w3.org/1999/xlink" width="864pt" height="576pt" viewBox="0 0 864 576" xmlns="http://www.w3.org/2000/svg" version="1.1">
 <metadata>
  <rdf:RDF xmlns:dc="http://purl.org/dc/elements/1.1/" xmlns:cc="http://creativecommons.org/ns#" xmlns:rdf="http://www.w3.org/1999/02/22-rdf-syntax-ns#">
   <cc:Work>
    <dc:type rdf:resource="http://purl.org/dc/dcmitype/StillImage"/>
    <dc:date>2022-05-27T19:40:21.427199</dc:date>
    <dc:format>image/svg+xml</dc:format>
    <dc:creator>
     <cc:Agent>
      <dc:title>Matplotlib v3.5.1, https://matplotlib.org/</dc:title>
     </cc:Agent>
    </dc:creator>
   </cc:Work>
  </rdf:RDF>
 </metadata>
 <defs>
  <style type="text/css">*{stroke-linejoin: round; stroke-linecap: butt}</style>
 </defs>
 <g id="figure_1">
  <g id="patch_1">
   <path d="M 0 576 
L 864 576 
L 864 0 
L 0 0 
z
" style="fill: #ffffff"/>
  </g>
  <g id="axes_1">
   <g id="patch_2">
    <path d="M 46.37 532.24 
L 853.2 532.24 
L 853.2 27.96 
L 46.37 27.96 
z
" style="fill: #e5e5e5"/>
   </g>
   <g id="matplotlib.axis_1">
    <g id="xtick_1">
     <g id="line2d_1">
      <path d="M 117.971797 532.24 
L 117.971797 27.96 
" clip-path="url(#pa01baa7c75)" style="fill: none; stroke: #ffffff; stroke-width: 0.8; stroke-linecap: square"/>
     </g>
     <g id="line2d_2">
      <defs>
       <path id="m59285ece0d" d="M 0 0 
L 0 3.5 
" style="stroke: #555555; stroke-width: 0.8"/>
      </defs>
      <g>
       <use xlink:href="#m59285ece0d" x="117.971797" y="532.24" style="fill: #555555; stroke: #555555; stroke-width: 0.8"/>
      </g>
     </g>
     <g id="text_1">
      <!-- 2000 -->
      <g style="fill: #555555" transform="translate(105.246797 546.838438)scale(0.1 -0.1)">
       <defs>
        <path id="DejaVuSans-32" d="M 1228 531 
L 3431 531 
L 3431 0 
L 469 0 
L 469 531 
Q 828 903 1448 1529 
Q 2069 2156 2228 2338 
Q 2531 2678 2651 2914 
Q 2772 3150 2772 3378 
Q 2772 3750 2511 3984 
Q 2250 4219 1831 4219 
Q 1534 4219 1204 4116 
Q 875 4013 500 3803 
L 500 4441 
Q 881 4594 1212 4672 
Q 1544 4750 1819 4750 
Q 2544 4750 2975 4387 
Q 3406 4025 3406 3419 
Q 3406 3131 3298 2873 
Q 3191 2616 2906 2266 
Q 2828 2175 2409 1742 
Q 1991 1309 1228 531 
z
" transform="scale(0.015625)"/>
        <path id="DejaVuSans-30" d="M 2034 4250 
Q 1547 4250 1301 3770 
Q 1056 3291 1056 2328 
Q 1056 1369 1301 889 
Q 1547 409 2034 409 
Q 2525 409 2770 889 
Q 3016 1369 3016 2328 
Q 3016 3291 2770 3770 
Q 2525 4250 2034 4250 
z
M 2034 4750 
Q 2819 4750 3233 4129 
Q 3647 3509 3647 2328 
Q 3647 1150 3233 529 
Q 2819 -91 2034 -91 
Q 1250 -91 836 529 
Q 422 1150 422 2328 
Q 422 3509 836 4129 
Q 1250 4750 2034 4750 
z
" transform="scale(0.015625)"/>
       </defs>
       <use xlink:href="#DejaVuSans-32"/>
       <use xlink:href="#DejaVuSans-30" x="63.623047"/>
       <use xlink:href="#DejaVuSans-30" x="127.246094"/>
       <use xlink:href="#DejaVuSans-30" x="190.869141"/>
      </g>
     </g>
    </g>
    <g id="xtick_2">
     <g id="line2d_3">
      <path d="M 292.610325 532.24 
L 292.610325 27.96 
" clip-path="url(#pa01baa7c75)" style="fill: none; stroke: #ffffff; stroke-width: 0.8; stroke-linecap: square"/>
     </g>
     <g id="line2d_4">
      <g>
       <use xlink:href="#m59285ece0d" x="292.610325" y="532.24" style="fill: #555555; stroke: #555555; stroke-width: 0.8"/>
      </g>
     </g>
     <g id="text_2">
      <!-- 2005 -->
      <g style="fill: #555555" transform="translate(279.885325 546.838438)scale(0.1 -0.1)">
       <defs>
        <path id="DejaVuSans-35" d="M 691 4666 
L 3169 4666 
L 3169 4134 
L 1269 4134 
L 1269 2991 
Q 1406 3038 1543 3061 
Q 1681 3084 1819 3084 
Q 2600 3084 3056 2656 
Q 3513 2228 3513 1497 
Q 3513 744 3044 326 
Q 2575 -91 1722 -91 
Q 1428 -91 1123 -41 
Q 819 9 494 109 
L 494 744 
Q 775 591 1075 516 
Q 1375 441 1709 441 
Q 2250 441 2565 725 
Q 2881 1009 2881 1497 
Q 2881 1984 2565 2268 
Q 2250 2553 1709 2553 
Q 1456 2553 1204 2497 
Q 953 2441 691 2322 
L 691 4666 
z
" transform="scale(0.015625)"/>
       </defs>
       <use xlink:href="#DejaVuSans-32"/>
       <use xlink:href="#DejaVuSans-30" x="63.623047"/>
       <use xlink:href="#DejaVuSans-30" x="127.246094"/>
       <use xlink:href="#DejaVuSans-35" x="190.869141"/>
      </g>
     </g>
    </g>
    <g id="xtick_3">
     <g id="line2d_5">
      <path d="M 467.248853 532.24 
L 467.248853 27.96 
" clip-path="url(#pa01baa7c75)" style="fill: none; stroke: #ffffff; stroke-width: 0.8; stroke-linecap: square"/>
     </g>
     <g id="line2d_6">
      <g>
       <use xlink:href="#m59285ece0d" x="467.248853" y="532.24" style="fill: #555555; stroke: #555555; stroke-width: 0.8"/>
      </g>
     </g>
     <g id="text_3">
      <!-- 2010 -->
      <g style="fill: #555555" transform="translate(454.523853 546.838438)scale(0.1 -0.1)">
       <defs>
        <path id="DejaVuSans-31" d="M 794 531 
L 1825 531 
L 1825 4091 
L 703 3866 
L 703 4441 
L 1819 4666 
L 2450 4666 
L 2450 531 
L 3481 531 
L 3481 0 
L 794 0 
L 794 531 
z
" transform="scale(0.015625)"/>
       </defs>
       <use xlink:href="#DejaVuSans-32"/>
       <use xlink:href="#DejaVuSans-30" x="63.623047"/>
       <use xlink:href="#DejaVuSans-31" x="127.246094"/>
       <use xlink:href="#DejaVuSans-30" x="190.869141"/>
      </g>
     </g>
    </g>
    <g id="xtick_4">
     <g id="line2d_7">
      <path d="M 641.887381 532.24 
L 641.887381 27.96 
" clip-path="url(#pa01baa7c75)" style="fill: none; stroke: #ffffff; stroke-width: 0.8; stroke-linecap: square"/>
     </g>
     <g id="line2d_8">
      <g>
       <use xlink:href="#m59285ece0d" x="641.887381" y="532.24" style="fill: #555555; stroke: #555555; stroke-width: 0.8"/>
      </g>
     </g>
     <g id="text_4">
      <!-- 2015 -->
      <g style="fill: #555555" transform="translate(629.162381 546.838438)scale(0.1 -0.1)">
       <use xlink:href="#DejaVuSans-32"/>
       <use xlink:href="#DejaVuSans-30" x="63.623047"/>
       <use xlink:href="#DejaVuSans-31" x="127.246094"/>
       <use xlink:href="#DejaVuSans-35" x="190.869141"/>
      </g>
     </g>
    </g>
    <g id="xtick_5">
     <g id="line2d_9">
      <path d="M 816.525909 532.24 
L 816.525909 27.96 
" clip-path="url(#pa01baa7c75)" style="fill: none; stroke: #ffffff; stroke-width: 0.8; stroke-linecap: square"/>
     </g>
     <g id="line2d_10">
      <g>
       <use xlink:href="#m59285ece0d" x="816.525909" y="532.24" style="fill: #555555; stroke: #555555; stroke-width: 0.8"/>
      </g>
     </g>
     <g id="text_5">
      <!-- 2020 -->
      <g style="fill: #555555" transform="translate(803.800909 546.838438)scale(0.1 -0.1)">
       <use xlink:href="#DejaVuSans-32"/>
       <use xlink:href="#DejaVuSans-30" x="63.623047"/>
       <use xlink:href="#DejaVuSans-32" x="127.246094"/>
       <use xlink:href="#DejaVuSans-30" x="190.869141"/>
      </g>
     </g>
    </g>
    <g id="text_6">
     <!-- Year -->
     <g style="fill: #555555" transform="translate(437.08 562.03625)scale(0.12 -0.12)">
      <defs>
       <path id="DejaVuSans-59" d="M -13 4666 
L 666 4666 
L 1959 2747 
L 3244 4666 
L 3922 4666 
L 2272 2222 
L 2272 0 
L 1638 0 
L 1638 2222 
L -13 4666 
z
" transform="scale(0.015625)"/>
       <path id="DejaVuSans-65" d="M 3597 1894 
L 3597 1613 
L 953 1613 
Q 991 1019 1311 708 
Q 1631 397 2203 397 
Q 2534 397 2845 478 
Q 3156 559 3463 722 
L 3463 178 
Q 3153 47 2828 -22 
Q 2503 -91 2169 -91 
Q 1331 -91 842 396 
Q 353 884 353 1716 
Q 353 2575 817 3079 
Q 1281 3584 2069 3584 
Q 2775 3584 3186 3129 
Q 3597 2675 3597 1894 
z
M 3022 2063 
Q 3016 2534 2758 2815 
Q 2500 3097 2075 3097 
Q 1594 3097 1305 2825 
Q 1016 2553 972 2059 
L 3022 2063 
z
" transform="scale(0.015625)"/>
       <path id="DejaVuSans-61" d="M 2194 1759 
Q 1497 1759 1228 1600 
Q 959 1441 959 1056 
Q 959 750 1161 570 
Q 1363 391 1709 391 
Q 2188 391 2477 730 
Q 2766 1069 2766 1631 
L 2766 1759 
L 2194 1759 
z
M 3341 1997 
L 3341 0 
L 2766 0 
L 2766 531 
Q 2569 213 2275 61 
Q 1981 -91 1556 -91 
Q 1019 -91 701 211 
Q 384 513 384 1019 
Q 384 1609 779 1909 
Q 1175 2209 1959 2209 
L 2766 2209 
L 2766 2266 
Q 2766 2663 2505 2880 
Q 2244 3097 1772 3097 
Q 1472 3097 1187 3025 
Q 903 2953 641 2809 
L 641 3341 
Q 956 3463 1253 3523 
Q 1550 3584 1831 3584 
Q 2591 3584 2966 3190 
Q 3341 2797 3341 1997 
z
" transform="scale(0.015625)"/>
       <path id="DejaVuSans-72" d="M 2631 2963 
Q 2534 3019 2420 3045 
Q 2306 3072 2169 3072 
Q 1681 3072 1420 2755 
Q 1159 2438 1159 1844 
L 1159 0 
L 581 0 
L 581 3500 
L 1159 3500 
L 1159 2956 
Q 1341 3275 1631 3429 
Q 1922 3584 2338 3584 
Q 2397 3584 2469 3576 
Q 2541 3569 2628 3553 
L 2631 2963 
z
" transform="scale(0.015625)"/>
      </defs>
      <use xlink:href="#DejaVuSans-59"/>
      <use xlink:href="#DejaVuSans-65" x="47.833984"/>
      <use xlink:href="#DejaVuSans-61" x="109.357422"/>
      <use xlink:href="#DejaVuSans-72" x="170.636719"/>
     </g>
    </g>
   </g>
   <g id="matplotlib.axis_2">
    <g id="ytick_1">
     <g id="line2d_11">
      <path d="M 46.37 455.384492 
L 853.2 455.384492 
" clip-path="url(#pa01baa7c75)" style="fill: none; stroke: #ffffff; stroke-width: 0.8; stroke-linecap: square"/>
     </g>
     <g id="line2d_12">
      <defs>
       <path id="m2f911826cc" d="M 0 0 
L -3.5 0 
" style="stroke: #555555; stroke-width: 0.8"/>
      </defs>
      <g>
       <use xlink:href="#m2f911826cc" x="46.37" y="455.384492" style="fill: #555555; stroke: #555555; stroke-width: 0.8"/>
      </g>
     </g>
     <g id="text_7">
      <!-- 5 -->
      <g style="fill: #555555" transform="translate(33.0075 459.183711)scale(0.1 -0.1)">
       <use xlink:href="#DejaVuSans-35"/>
      </g>
     </g>
    </g>
    <g id="ytick_2">
     <g id="line2d_13">
      <path d="M 46.37 365.495009 
L 853.2 365.495009 
" clip-path="url(#pa01baa7c75)" style="fill: none; stroke: #ffffff; stroke-width: 0.8; stroke-linecap: square"/>
     </g>
     <g id="line2d_14">
      <g>
       <use xlink:href="#m2f911826cc" x="46.37" y="365.495009" style="fill: #555555; stroke: #555555; stroke-width: 0.8"/>
      </g>
     </g>
     <g id="text_8">
      <!-- 10 -->
      <g style="fill: #555555" transform="translate(26.645 369.294228)scale(0.1 -0.1)">
       <use xlink:href="#DejaVuSans-31"/>
       <use xlink:href="#DejaVuSans-30" x="63.623047"/>
      </g>
     </g>
    </g>
    <g id="ytick_3">
     <g id="line2d_15">
      <path d="M 46.37 275.605526 
L 853.2 275.605526 
" clip-path="url(#pa01baa7c75)" style="fill: none; stroke: #ffffff; stroke-width: 0.8; stroke-linecap: square"/>
     </g>
     <g id="line2d_16">
      <g>
       <use xlink:href="#m2f911826cc" x="46.37" y="275.605526" style="fill: #555555; stroke: #555555; stroke-width: 0.8"/>
      </g>
     </g>
     <g id="text_9">
      <!-- 15 -->
      <g style="fill: #555555" transform="translate(26.645 279.404745)scale(0.1 -0.1)">
       <use xlink:href="#DejaVuSans-31"/>
       <use xlink:href="#DejaVuSans-35" x="63.623047"/>
      </g>
     </g>
    </g>
    <g id="ytick_4">
     <g id="line2d_17">
      <path d="M 46.37 185.716043 
L 853.2 185.716043 
" clip-path="url(#pa01baa7c75)" style="fill: none; stroke: #ffffff; stroke-width: 0.8; stroke-linecap: square"/>
     </g>
     <g id="line2d_18">
      <g>
       <use xlink:href="#m2f911826cc" x="46.37" y="185.716043" style="fill: #555555; stroke: #555555; stroke-width: 0.8"/>
      </g>
     </g>
     <g id="text_10">
      <!-- 20 -->
      <g style="fill: #555555" transform="translate(26.645 189.515262)scale(0.1 -0.1)">
       <use xlink:href="#DejaVuSans-32"/>
       <use xlink:href="#DejaVuSans-30" x="63.623047"/>
      </g>
     </g>
    </g>
    <g id="ytick_5">
     <g id="line2d_19">
      <path d="M 46.37 95.82656 
L 853.2 95.82656 
" clip-path="url(#pa01baa7c75)" style="fill: none; stroke: #ffffff; stroke-width: 0.8; stroke-linecap: square"/>
     </g>
     <g id="line2d_20">
      <g>
       <use xlink:href="#m2f911826cc" x="46.37" y="95.82656" style="fill: #555555; stroke: #555555; stroke-width: 0.8"/>
      </g>
     </g>
     <g id="text_11">
      <!-- 25 -->
      <g style="fill: #555555" transform="translate(26.645 99.625778)scale(0.1 -0.1)">
       <use xlink:href="#DejaVuSans-32"/>
       <use xlink:href="#DejaVuSans-35" x="63.623047"/>
      </g>
     </g>
    </g>
    <g id="text_12">
     <!-- Deaths per 100,000 -->
     <g style="fill: #555555" transform="translate(20.149375 339.962187)rotate(-90)scale(0.12 -0.12)">
      <defs>
       <path id="DejaVuSans-44" d="M 1259 4147 
L 1259 519 
L 2022 519 
Q 2988 519 3436 956 
Q 3884 1394 3884 2338 
Q 3884 3275 3436 3711 
Q 2988 4147 2022 4147 
L 1259 4147 
z
M 628 4666 
L 1925 4666 
Q 3281 4666 3915 4102 
Q 4550 3538 4550 2338 
Q 4550 1131 3912 565 
Q 3275 0 1925 0 
L 628 0 
L 628 4666 
z
" transform="scale(0.015625)"/>
       <path id="DejaVuSans-74" d="M 1172 4494 
L 1172 3500 
L 2356 3500 
L 2356 3053 
L 1172 3053 
L 1172 1153 
Q 1172 725 1289 603 
Q 1406 481 1766 481 
L 2356 481 
L 2356 0 
L 1766 0 
Q 1100 0 847 248 
Q 594 497 594 1153 
L 594 3053 
L 172 3053 
L 172 3500 
L 594 3500 
L 594 4494 
L 1172 4494 
z
" transform="scale(0.015625)"/>
       <path id="DejaVuSans-68" d="M 3513 2113 
L 3513 0 
L 2938 0 
L 2938 2094 
Q 2938 2591 2744 2837 
Q 2550 3084 2163 3084 
Q 1697 3084 1428 2787 
Q 1159 2491 1159 1978 
L 1159 0 
L 581 0 
L 581 4863 
L 1159 4863 
L 1159 2956 
Q 1366 3272 1645 3428 
Q 1925 3584 2291 3584 
Q 2894 3584 3203 3211 
Q 3513 2838 3513 2113 
z
" transform="scale(0.015625)"/>
       <path id="DejaVuSans-73" d="M 2834 3397 
L 2834 2853 
Q 2591 2978 2328 3040 
Q 2066 3103 1784 3103 
Q 1356 3103 1142 2972 
Q 928 2841 928 2578 
Q 928 2378 1081 2264 
Q 1234 2150 1697 2047 
L 1894 2003 
Q 2506 1872 2764 1633 
Q 3022 1394 3022 966 
Q 3022 478 2636 193 
Q 2250 -91 1575 -91 
Q 1294 -91 989 -36 
Q 684 19 347 128 
L 347 722 
Q 666 556 975 473 
Q 1284 391 1588 391 
Q 1994 391 2212 530 
Q 2431 669 2431 922 
Q 2431 1156 2273 1281 
Q 2116 1406 1581 1522 
L 1381 1569 
Q 847 1681 609 1914 
Q 372 2147 372 2553 
Q 372 3047 722 3315 
Q 1072 3584 1716 3584 
Q 2034 3584 2315 3537 
Q 2597 3491 2834 3397 
z
" transform="scale(0.015625)"/>
       <path id="DejaVuSans-20" transform="scale(0.015625)"/>
       <path id="DejaVuSans-70" d="M 1159 525 
L 1159 -1331 
L 581 -1331 
L 581 3500 
L 1159 3500 
L 1159 2969 
Q 1341 3281 1617 3432 
Q 1894 3584 2278 3584 
Q 2916 3584 3314 3078 
Q 3713 2572 3713 1747 
Q 3713 922 3314 415 
Q 2916 -91 2278 -91 
Q 1894 -91 1617 61 
Q 1341 213 1159 525 
z
M 3116 1747 
Q 3116 2381 2855 2742 
Q 2594 3103 2138 3103 
Q 1681 3103 1420 2742 
Q 1159 2381 1159 1747 
Q 1159 1113 1420 752 
Q 1681 391 2138 391 
Q 2594 391 2855 752 
Q 3116 1113 3116 1747 
z
" transform="scale(0.015625)"/>
       <path id="DejaVuSans-2c" d="M 750 794 
L 1409 794 
L 1409 256 
L 897 -744 
L 494 -744 
L 750 256 
L 750 794 
z
" transform="scale(0.015625)"/>
      </defs>
      <use xlink:href="#DejaVuSans-44"/>
      <use xlink:href="#DejaVuSans-65" x="77.001953"/>
      <use xlink:href="#DejaVuSans-61" x="138.525391"/>
      <use xlink:href="#DejaVuSans-74" x="199.804688"/>
      <use xlink:href="#DejaVuSans-68" x="239.013672"/>
      <use xlink:href="#DejaVuSans-73" x="302.392578"/>
      <use xlink:href="#DejaVuSans-20" x="354.492188"/>
      <use xlink:href="#DejaVuSans-70" x="386.279297"/>
      <use xlink:href="#DejaVuSans-65" x="449.755859"/>
      <use xlink:href="#DejaVuSans-72" x="511.279297"/>
      <use xlink:href="#DejaVuSans-20" x="552.392578"/>
      <use xlink:href="#DejaVuSans-31" x="584.179688"/>
      <use xlink:href="#DejaVuSans-30" x="647.802734"/>
      <use xlink:href="#DejaVuSans-30" x="711.425781"/>
      <use xlink:href="#DejaVuSans-2c" x="775.048828"/>
      <use xlink:href="#DejaVuSans-30" x="806.835938"/>
      <use xlink:href="#DejaVuSans-30" x="870.458984"/>
      <use xlink:href="#DejaVuSans-30" x="934.082031"/>
     </g>
    </g>
   </g>
   <g id="line2d_21">
    <path d="M 83.044091 85.039822 
L 117.971797 72.455294 
L 152.899502 76.050873 
L 187.827208 50.881818 
L 222.754913 79.646453 
L 257.682619 85.039822 
L 292.610325 94.02877 
L 327.53803 94.02877 
L 362.465736 117.400036 
L 397.393442 187.513832 
L 432.321147 237.851943 
L 467.248853 255.82984 
L 502.176558 261.223209 
L 537.104264 263.020998 
L 572.03197 279.201105 
L 606.959675 279.201105 
L 641.887381 266.616578 
L 676.815087 254.03205 
L 711.742792 266.616578 
L 746.670498 280.998895 
L 781.598203 298.976791 
L 816.525909 261.223209 
" clip-path="url(#pa01baa7c75)" style="fill: none; stroke: #e24a33; stroke-width: 3; stroke-linecap: square"/>
    <defs>
     <path id="m0ff8451ae9" d="M 0 3 
C 0.795609 3 1.55874 2.683901 2.12132 2.12132 
C 2.683901 1.55874 3 0.795609 3 0 
C 3 -0.795609 2.683901 -1.55874 2.12132 -2.12132 
C 1.55874 -2.683901 0.795609 -3 0 -3 
C -0.795609 -3 -1.55874 -2.683901 -2.12132 -2.12132 
C -2.683901 -1.55874 -3 -0.795609 -3 0 
C -3 0.795609 -2.683901 1.55874 -2.12132 2.12132 
C -1.55874 2.683901 -0.795609 3 0 3 
z
" style="stroke: #e24a33"/>
    </defs>
    <g clip-path="url(#pa01baa7c75)">
     <use xlink:href="#m0ff8451ae9" x="83.044091" y="85.039822" style="fill: #e24a33; stroke: #e24a33"/>
     <use xlink:href="#m0ff8451ae9" x="117.971797" y="72.455294" style="fill: #e24a33; stroke: #e24a33"/>
     <use xlink:href="#m0ff8451ae9" x="152.899502" y="76.050873" style="fill: #e24a33; stroke: #e24a33"/>
     <use xlink:href="#m0ff8451ae9" x="187.827208" y="50.881818" style="fill: #e24a33; stroke: #e24a33"/>
     <use xlink:href="#m0ff8451ae9" x="222.754913" y="79.646453" style="fill: #e24a33; stroke: #e24a33"/>
     <use xlink:href="#m0ff8451ae9" x="257.682619" y="85.039822" style="fill: #e24a33; stroke: #e24a33"/>
     <use xlink:href="#m0ff8451ae9" x="292.610325" y="94.02877" style="fill: #e24a33; stroke: #e24a33"/>
     <use xlink:href="#m0ff8451ae9" x="327.53803" y="94.02877" style="fill: #e24a33; stroke: #e24a33"/>
     <use xlink:href="#m0ff8451ae9" x="362.465736" y="117.400036" style="fill: #e24a33; stroke: #e24a33"/>
     <use xlink:href="#m0ff8451ae9" x="397.393442" y="187.513832" style="fill: #e24a33; stroke: #e24a33"/>
     <use xlink:href="#m0ff8451ae9" x="432.321147" y="237.851943" style="fill: #e24a33; stroke: #e24a33"/>
     <use xlink:href="#m0ff8451ae9" x="467.248853" y="255.82984" style="fill: #e24a33; stroke: #e24a33"/>
     <use xlink:href="#m0ff8451ae9" x="502.176558" y="261.223209" style="fill: #e24a33; stroke: #e24a33"/>
     <use xlink:href="#m0ff8451ae9" x="537.104264" y="263.020998" style="fill: #e24a33; stroke: #e24a33"/>
     <use xlink:href="#m0ff8451ae9" x="572.03197" y="279.201105" style="fill: #e24a33; stroke: #e24a33"/>
     <use xlink:href="#m0ff8451ae9" x="606.959675" y="279.201105" style="fill: #e24a33; stroke: #e24a33"/>
     <use xlink:href="#m0ff8451ae9" x="641.887381" y="266.616578" style="fill: #e24a33; stroke: #e24a33"/>
     <use xlink:href="#m0ff8451ae9" x="676.815087" y="254.03205" style="fill: #e24a33; stroke: #e24a33"/>
     <use xlink:href="#m0ff8451ae9" x="711.742792" y="266.616578" style="fill: #e24a33; stroke: #e24a33"/>
     <use xlink:href="#m0ff8451ae9" x="746.670498" y="280.998895" style="fill: #e24a33; stroke: #e24a33"/>
     <use xlink:href="#m0ff8451ae9" x="781.598203" y="298.976791" style="fill: #e24a33; stroke: #e24a33"/>
     <use xlink:href="#m0ff8451ae9" x="816.525909" y="261.223209" style="fill: #e24a33; stroke: #e24a33"/>
    </g>
   </g>
   <g id="line2d_22">
    <path d="M 83.044091 228.862995 
L 117.971797 243.245312 
L 152.899502 246.840891 
L 187.827208 246.840891 
L 222.754913 248.638681 
L 257.682619 264.818788 
L 292.610325 255.82984 
L 327.53803 245.043102 
L 362.465736 257.627629 
L 397.393442 268.414367 
L 432.321147 286.392264 
L 467.248853 289.987843 
L 502.176558 286.392264 
L 537.104264 280.998895 
L 572.03197 291.785633 
L 606.959675 293.583422 
L 641.887381 263.020998 
L 676.815087 236.054153 
L 711.742792 227.065205 
L 746.670498 236.054153 
L 781.598203 232.458574 
L 816.525909 146.16467 
" clip-path="url(#pa01baa7c75)" style="fill: none; stroke: #348abd; stroke-width: 2; stroke-linecap: square"/>
    <defs>
     <path id="m30ae5eea46" d="M 0 3 
C 0.795609 3 1.55874 2.683901 2.12132 2.12132 
C 2.683901 1.55874 3 0.795609 3 0 
C 3 -0.795609 2.683901 -1.55874 2.12132 -2.12132 
C 1.55874 -2.683901 0.795609 -3 0 -3 
C -0.795609 -3 -1.55874 -2.683901 -2.12132 -2.12132 
C -2.683901 -1.55874 -3 -0.795609 -3 0 
C -3 0.795609 -2.683901 1.55874 -2.12132 2.12132 
C -1.55874 2.683901 -0.795609 3 0 3 
z
" style="stroke: #348abd"/>
    </defs>
    <g clip-path="url(#pa01baa7c75)">
     <use xlink:href="#m30ae5eea46" x="83.044091" y="228.862995" style="fill: #348abd; stroke: #348abd"/>
     <use xlink:href="#m30ae5eea46" x="117.971797" y="243.245312" style="fill: #348abd; stroke: #348abd"/>
     <use xlink:href="#m30ae5eea46" x="152.899502" y="246.840891" style="fill: #348abd; stroke: #348abd"/>
     <use xlink:href="#m30ae5eea46" x="187.827208" y="246.840891" style="fill: #348abd; stroke: #348abd"/>
     <use xlink:href="#m30ae5eea46" x="222.754913" y="248.638681" style="fill: #348abd; stroke: #348abd"/>
     <use xlink:href="#m30ae5eea46" x="257.682619" y="264.818788" style="fill: #348abd; stroke: #348abd"/>
     <use xlink:href="#m30ae5eea46" x="292.610325" y="255.82984" style="fill: #348abd; stroke: #348abd"/>
     <use xlink:href="#m30ae5eea46" x="327.53803" y="245.043102" style="fill: #348abd; stroke: #348abd"/>
     <use xlink:href="#m30ae5eea46" x="362.465736" y="257.627629" style="fill: #348abd; stroke: #348abd"/>
     <use xlink:href="#m30ae5eea46" x="397.393442" y="268.414367" style="fill: #348abd; stroke: #348abd"/>
     <use xlink:href="#m30ae5eea46" x="432.321147" y="286.392264" style="fill: #348abd; stroke: #348abd"/>
     <use xlink:href="#m30ae5eea46" x="467.248853" y="289.987843" style="fill: #348abd; stroke: #348abd"/>
     <use xlink:href="#m30ae5eea46" x="502.176558" y="286.392264" style="fill: #348abd; stroke: #348abd"/>
     <use xlink:href="#m30ae5eea46" x="537.104264" y="280.998895" style="fill: #348abd; stroke: #348abd"/>
     <use xlink:href="#m30ae5eea46" x="572.03197" y="291.785633" style="fill: #348abd; stroke: #348abd"/>
     <use xlink:href="#m30ae5eea46" x="606.959675" y="293.583422" style="fill: #348abd; stroke: #348abd"/>
     <use xlink:href="#m30ae5eea46" x="641.887381" y="263.020998" style="fill: #348abd; stroke: #348abd"/>
     <use xlink:href="#m30ae5eea46" x="676.815087" y="236.054153" style="fill: #348abd; stroke: #348abd"/>
     <use xlink:href="#m30ae5eea46" x="711.742792" y="227.065205" style="fill: #348abd; stroke: #348abd"/>
     <use xlink:href="#m30ae5eea46" x="746.670498" y="236.054153" style="fill: #348abd; stroke: #348abd"/>
     <use xlink:href="#m30ae5eea46" x="781.598203" y="232.458574" style="fill: #348abd; stroke: #348abd"/>
     <use xlink:href="#m30ae5eea46" x="816.525909" y="146.16467" style="fill: #348abd; stroke: #348abd"/>
    </g>
   </g>
   <g id="line2d_23">
    <path d="M 83.044091 462.575651 
L 117.971797 464.37344 
L 152.899502 464.37344 
L 187.827208 464.37344 
L 222.754913 457.182282 
L 257.682619 460.777861 
L 292.610325 457.182282 
L 327.53803 457.182282 
L 362.465736 464.37344 
L 397.393442 462.575651 
L 432.321147 464.37344 
L 467.248853 467.96902 
L 502.176558 469.766809 
L 537.104264 466.17123 
L 572.03197 467.96902 
L 606.959675 466.17123 
L 641.887381 466.17123 
L 676.815087 464.37344 
L 711.742792 469.766809 
L 746.670498 471.564599 
L 781.598203 469.766809 
L 816.525909 466.17123 
" clip-path="url(#pa01baa7c75)" style="fill: none; stroke: #988ed5; stroke-linecap: square"/>
    <defs>
     <path id="m38c226b1ec" d="M 0 3 
C 0.795609 3 1.55874 2.683901 2.12132 2.12132 
C 2.683901 1.55874 3 0.795609 3 0 
C 3 -0.795609 2.683901 -1.55874 2.12132 -2.12132 
C 1.55874 -2.683901 0.795609 -3 0 -3 
C -0.795609 -3 -1.55874 -2.683901 -2.12132 -2.12132 
C -2.683901 -1.55874 -3 -0.795609 -3 0 
C -3 0.795609 -2.683901 1.55874 -2.12132 2.12132 
C -1.55874 2.683901 -0.795609 3 0 3 
z
" style="stroke: #988ed5"/>
    </defs>
    <g clip-path="url(#pa01baa7c75)">
     <use xlink:href="#m38c226b1ec" x="83.044091" y="462.575651" style="fill: #988ed5; stroke: #988ed5"/>
     <use xlink:href="#m38c226b1ec" x="117.971797" y="464.37344" style="fill: #988ed5; stroke: #988ed5"/>
     <use xlink:href="#m38c226b1ec" x="152.899502" y="464.37344" style="fill: #988ed5; stroke: #988ed5"/>
     <use xlink:href="#m38c226b1ec" x="187.827208" y="464.37344" style="fill: #988ed5; stroke: #988ed5"/>
     <use xlink:href="#m38c226b1ec" x="222.754913" y="457.182282" style="fill: #988ed5; stroke: #988ed5"/>
     <use xlink:href="#m38c226b1ec" x="257.682619" y="460.777861" style="fill: #988ed5; stroke: #988ed5"/>
     <use xlink:href="#m38c226b1ec" x="292.610325" y="457.182282" style="fill: #988ed5; stroke: #988ed5"/>
     <use xlink:href="#m38c226b1ec" x="327.53803" y="457.182282" style="fill: #988ed5; stroke: #988ed5"/>
     <use xlink:href="#m38c226b1ec" x="362.465736" y="464.37344" style="fill: #988ed5; stroke: #988ed5"/>
     <use xlink:href="#m38c226b1ec" x="397.393442" y="462.575651" style="fill: #988ed5; stroke: #988ed5"/>
     <use xlink:href="#m38c226b1ec" x="432.321147" y="464.37344" style="fill: #988ed5; stroke: #988ed5"/>
     <use xlink:href="#m38c226b1ec" x="467.248853" y="467.96902" style="fill: #988ed5; stroke: #988ed5"/>
     <use xlink:href="#m38c226b1ec" x="502.176558" y="469.766809" style="fill: #988ed5; stroke: #988ed5"/>
     <use xlink:href="#m38c226b1ec" x="537.104264" y="466.17123" style="fill: #988ed5; stroke: #988ed5"/>
     <use xlink:href="#m38c226b1ec" x="572.03197" y="467.96902" style="fill: #988ed5; stroke: #988ed5"/>
     <use xlink:href="#m38c226b1ec" x="606.959675" y="466.17123" style="fill: #988ed5; stroke: #988ed5"/>
     <use xlink:href="#m38c226b1ec" x="641.887381" y="466.17123" style="fill: #988ed5; stroke: #988ed5"/>
     <use xlink:href="#m38c226b1ec" x="676.815087" y="464.37344" style="fill: #988ed5; stroke: #988ed5"/>
     <use xlink:href="#m38c226b1ec" x="711.742792" y="469.766809" style="fill: #988ed5; stroke: #988ed5"/>
     <use xlink:href="#m38c226b1ec" x="746.670498" y="471.564599" style="fill: #988ed5; stroke: #988ed5"/>
     <use xlink:href="#m38c226b1ec" x="781.598203" y="469.766809" style="fill: #988ed5; stroke: #988ed5"/>
     <use xlink:href="#m38c226b1ec" x="816.525909" y="466.17123" style="fill: #988ed5; stroke: #988ed5"/>
    </g>
   </g>
   <g id="line2d_24">
    <path d="M 83.044091 464.37344 
L 117.971797 466.17123 
L 152.899502 469.766809 
L 187.827208 469.766809 
L 222.754913 473.362389 
L 257.682619 471.564599 
L 292.610325 473.362389 
L 327.53803 476.957968 
L 362.465736 476.957968 
L 397.393442 476.957968 
L 432.321147 476.957968 
L 467.248853 478.755758 
L 502.176558 478.755758 
L 537.104264 480.553547 
L 572.03197 484.149127 
L 606.959675 480.553547 
L 641.887381 484.149127 
L 676.815087 485.946916 
L 711.742792 487.744706 
L 746.670498 487.744706 
L 781.598203 485.946916 
L 816.525909 489.542496 
" clip-path="url(#pa01baa7c75)" style="fill: none; stroke: #777777; stroke-width: 3; stroke-linecap: square"/>
    <defs>
     <path id="m163953217c" d="M -3 3 
L 3 -3 
M -3 -3 
L 3 3 
" style="stroke: #777777"/>
    </defs>
    <g clip-path="url(#pa01baa7c75)">
     <use xlink:href="#m163953217c" x="83.044091" y="464.37344" style="fill: #777777; stroke: #777777"/>
     <use xlink:href="#m163953217c" x="117.971797" y="466.17123" style="fill: #777777; stroke: #777777"/>
     <use xlink:href="#m163953217c" x="152.899502" y="469.766809" style="fill: #777777; stroke: #777777"/>
     <use xlink:href="#m163953217c" x="187.827208" y="469.766809" style="fill: #777777; stroke: #777777"/>
     <use xlink:href="#m163953217c" x="222.754913" y="473.362389" style="fill: #777777; stroke: #777777"/>
     <use xlink:href="#m163953217c" x="257.682619" y="471.564599" style="fill: #777777; stroke: #777777"/>
     <use xlink:href="#m163953217c" x="292.610325" y="473.362389" style="fill: #777777; stroke: #777777"/>
     <use xlink:href="#m163953217c" x="327.53803" y="476.957968" style="fill: #777777; stroke: #777777"/>
     <use xlink:href="#m163953217c" x="362.465736" y="476.957968" style="fill: #777777; stroke: #777777"/>
     <use xlink:href="#m163953217c" x="397.393442" y="476.957968" style="fill: #777777; stroke: #777777"/>
     <use xlink:href="#m163953217c" x="432.321147" y="476.957968" style="fill: #777777; stroke: #777777"/>
     <use xlink:href="#m163953217c" x="467.248853" y="478.755758" style="fill: #777777; stroke: #777777"/>
     <use xlink:href="#m163953217c" x="502.176558" y="478.755758" style="fill: #777777; stroke: #777777"/>
     <use xlink:href="#m163953217c" x="537.104264" y="480.553547" style="fill: #777777; stroke: #777777"/>
     <use xlink:href="#m163953217c" x="572.03197" y="484.149127" style="fill: #777777; stroke: #777777"/>
     <use xlink:href="#m163953217c" x="606.959675" y="480.553547" style="fill: #777777; stroke: #777777"/>
     <use xlink:href="#m163953217c" x="641.887381" y="484.149127" style="fill: #777777; stroke: #777777"/>
     <use xlink:href="#m163953217c" x="676.815087" y="485.946916" style="fill: #777777; stroke: #777777"/>
     <use xlink:href="#m163953217c" x="711.742792" y="487.744706" style="fill: #777777; stroke: #777777"/>
     <use xlink:href="#m163953217c" x="746.670498" y="487.744706" style="fill: #777777; stroke: #777777"/>
     <use xlink:href="#m163953217c" x="781.598203" y="485.946916" style="fill: #777777; stroke: #777777"/>
     <use xlink:href="#m163953217c" x="816.525909" y="489.542496" style="fill: #777777; stroke: #777777"/>
    </g>
   </g>
   <g id="line2d_25">
    <path d="M 83.044091 475.160178 
L 117.971797 467.96902 
L 152.899502 458.980071 
L 187.827208 444.597754 
L 222.754913 428.417647 
L 257.682619 417.630909 
L 292.610325 412.23754 
L 327.53803 390.664064 
L 362.465736 383.472906 
L 397.393442 387.068485 
L 432.321147 392.461854 
L 467.248853 387.068485 
L 502.176558 378.079537 
L 537.104264 390.664064 
L 572.03197 383.472906 
L 606.959675 378.079537 
L 641.887381 358.30385 
L 676.815087 307.96574 
L 711.742792 304.37016 
L 746.670498 338.528164 
L 781.598203 331.337005 
L 816.525909 232.458574 
" clip-path="url(#pa01baa7c75)" style="fill: none; stroke: #fbc15e; stroke-width: 2; stroke-linecap: square"/>
    <defs>
     <path id="m4ba5042f20" d="M -3 3 
L 3 -3 
M -3 -3 
L 3 3 
" style="stroke: #fbc15e"/>
    </defs>
    <g clip-path="url(#pa01baa7c75)">
     <use xlink:href="#m4ba5042f20" x="83.044091" y="475.160178" style="fill: #fbc15e; stroke: #fbc15e"/>
     <use xlink:href="#m4ba5042f20" x="117.971797" y="467.96902" style="fill: #fbc15e; stroke: #fbc15e"/>
     <use xlink:href="#m4ba5042f20" x="152.899502" y="458.980071" style="fill: #fbc15e; stroke: #fbc15e"/>
     <use xlink:href="#m4ba5042f20" x="187.827208" y="444.597754" style="fill: #fbc15e; stroke: #fbc15e"/>
     <use xlink:href="#m4ba5042f20" x="222.754913" y="428.417647" style="fill: #fbc15e; stroke: #fbc15e"/>
     <use xlink:href="#m4ba5042f20" x="257.682619" y="417.630909" style="fill: #fbc15e; stroke: #fbc15e"/>
     <use xlink:href="#m4ba5042f20" x="292.610325" y="412.23754" style="fill: #fbc15e; stroke: #fbc15e"/>
     <use xlink:href="#m4ba5042f20" x="327.53803" y="390.664064" style="fill: #fbc15e; stroke: #fbc15e"/>
     <use xlink:href="#m4ba5042f20" x="362.465736" y="383.472906" style="fill: #fbc15e; stroke: #fbc15e"/>
     <use xlink:href="#m4ba5042f20" x="397.393442" y="387.068485" style="fill: #fbc15e; stroke: #fbc15e"/>
     <use xlink:href="#m4ba5042f20" x="432.321147" y="392.461854" style="fill: #fbc15e; stroke: #fbc15e"/>
     <use xlink:href="#m4ba5042f20" x="467.248853" y="387.068485" style="fill: #fbc15e; stroke: #fbc15e"/>
     <use xlink:href="#m4ba5042f20" x="502.176558" y="378.079537" style="fill: #fbc15e; stroke: #fbc15e"/>
     <use xlink:href="#m4ba5042f20" x="537.104264" y="390.664064" style="fill: #fbc15e; stroke: #fbc15e"/>
     <use xlink:href="#m4ba5042f20" x="572.03197" y="383.472906" style="fill: #fbc15e; stroke: #fbc15e"/>
     <use xlink:href="#m4ba5042f20" x="606.959675" y="378.079537" style="fill: #fbc15e; stroke: #fbc15e"/>
     <use xlink:href="#m4ba5042f20" x="641.887381" y="358.30385" style="fill: #fbc15e; stroke: #fbc15e"/>
     <use xlink:href="#m4ba5042f20" x="676.815087" y="307.96574" style="fill: #fbc15e; stroke: #fbc15e"/>
     <use xlink:href="#m4ba5042f20" x="711.742792" y="304.37016" style="fill: #fbc15e; stroke: #fbc15e"/>
     <use xlink:href="#m4ba5042f20" x="746.670498" y="338.528164" style="fill: #fbc15e; stroke: #fbc15e"/>
     <use xlink:href="#m4ba5042f20" x="781.598203" y="331.337005" style="fill: #fbc15e; stroke: #fbc15e"/>
     <use xlink:href="#m4ba5042f20" x="816.525909" y="232.458574" style="fill: #fbc15e; stroke: #fbc15e"/>
    </g>
   </g>
   <g id="line2d_26">
    <path d="M 83.044091 487.744706 
L 117.971797 480.553547 
L 152.899502 476.957968 
L 187.827208 476.957968 
L 222.754913 475.160178 
L 257.682619 467.96902 
L 292.610325 466.17123 
L 327.53803 469.766809 
L 362.465736 469.766809 
L 397.393442 466.17123 
L 432.321147 466.17123 
L 467.248853 460.777861 
L 502.176558 458.980071 
L 537.104264 458.980071 
L 572.03197 462.575651 
L 606.959675 455.384492 
L 641.887381 451.788913 
L 676.815087 449.991123 
L 711.742792 441.002175 
L 746.670498 444.597754 
L 781.598203 446.395544 
L 816.525909 457.182282 
" clip-path="url(#pa01baa7c75)" style="fill: none; stroke: #8eba42; stroke-linecap: square"/>
    <defs>
     <path id="ma00a9a388b" d="M -3 3 
L 3 -3 
M -3 -3 
L 3 3 
" style="stroke: #8eba42"/>
    </defs>
    <g clip-path="url(#pa01baa7c75)">
     <use xlink:href="#ma00a9a388b" x="83.044091" y="487.744706" style="fill: #8eba42; stroke: #8eba42"/>
     <use xlink:href="#ma00a9a388b" x="117.971797" y="480.553547" style="fill: #8eba42; stroke: #8eba42"/>
     <use xlink:href="#ma00a9a388b" x="152.899502" y="476.957968" style="fill: #8eba42; stroke: #8eba42"/>
     <use xlink:href="#ma00a9a388b" x="187.827208" y="476.957968" style="fill: #8eba42; stroke: #8eba42"/>
     <use xlink:href="#ma00a9a388b" x="222.754913" y="475.160178" style="fill: #8eba42; stroke: #8eba42"/>
     <use xlink:href="#ma00a9a388b" x="257.682619" y="467.96902" style="fill: #8eba42; stroke: #8eba42"/>
     <use xlink:href="#ma00a9a388b" x="292.610325" y="466.17123" style="fill: #8eba42; stroke: #8eba42"/>
     <use xlink:href="#ma00a9a388b" x="327.53803" y="469.766809" style="fill: #8eba42; stroke: #8eba42"/>
     <use xlink:href="#ma00a9a388b" x="362.465736" y="469.766809" style="fill: #8eba42; stroke: #8eba42"/>
     <use xlink:href="#ma00a9a388b" x="397.393442" y="466.17123" style="fill: #8eba42; stroke: #8eba42"/>
     <use xlink:href="#ma00a9a388b" x="432.321147" y="466.17123" style="fill: #8eba42; stroke: #8eba42"/>
     <use xlink:href="#ma00a9a388b" x="467.248853" y="460.777861" style="fill: #8eba42; stroke: #8eba42"/>
     <use xlink:href="#ma00a9a388b" x="502.176558" y="458.980071" style="fill: #8eba42; stroke: #8eba42"/>
     <use xlink:href="#ma00a9a388b" x="537.104264" y="458.980071" style="fill: #8eba42; stroke: #8eba42"/>
     <use xlink:href="#ma00a9a388b" x="572.03197" y="462.575651" style="fill: #8eba42; stroke: #8eba42"/>
     <use xlink:href="#ma00a9a388b" x="606.959675" y="455.384492" style="fill: #8eba42; stroke: #8eba42"/>
     <use xlink:href="#ma00a9a388b" x="641.887381" y="451.788913" style="fill: #8eba42; stroke: #8eba42"/>
     <use xlink:href="#ma00a9a388b" x="676.815087" y="449.991123" style="fill: #8eba42; stroke: #8eba42"/>
     <use xlink:href="#ma00a9a388b" x="711.742792" y="441.002175" style="fill: #8eba42; stroke: #8eba42"/>
     <use xlink:href="#ma00a9a388b" x="746.670498" y="444.597754" style="fill: #8eba42; stroke: #8eba42"/>
     <use xlink:href="#ma00a9a388b" x="781.598203" y="446.395544" style="fill: #8eba42; stroke: #8eba42"/>
     <use xlink:href="#ma00a9a388b" x="816.525909" y="457.182282" style="fill: #8eba42; stroke: #8eba42"/>
    </g>
   </g>
   <g id="line2d_27">
    <path d="M 83.044091 494.935865 
L 117.971797 498.531444 
L 152.899502 500.329234 
L 187.827208 500.329234 
L 222.754913 496.733654 
L 257.682619 500.329234 
L 292.610325 498.531444 
L 327.53803 500.329234 
L 362.465736 500.329234 
L 397.393442 500.329234 
L 432.321147 502.127023 
L 467.248853 502.127023 
L 502.176558 503.924813 
L 537.104264 505.722602 
L 572.03197 507.520392 
L 606.959675 505.722602 
L 641.887381 503.924813 
L 676.815087 505.722602 
L 711.742792 507.520392 
L 746.670498 507.520392 
L 781.598203 509.318182 
L 816.525909 509.318182 
" clip-path="url(#pa01baa7c75)" style="fill: none; stroke: #ffb5b8; stroke-width: 3; stroke-linecap: square"/>
    <defs>
     <path id="m76086e4b84" d="M -0 3 
L 3 -3 
L -3 -3 
z
" style="stroke: #ffb5b8; stroke-linejoin: miter"/>
    </defs>
    <g clip-path="url(#pa01baa7c75)">
     <use xlink:href="#m76086e4b84" x="83.044091" y="494.935865" style="fill: #ffb5b8; stroke: #ffb5b8; stroke-linejoin: miter"/>
     <use xlink:href="#m76086e4b84" x="117.971797" y="498.531444" style="fill: #ffb5b8; stroke: #ffb5b8; stroke-linejoin: miter"/>
     <use xlink:href="#m76086e4b84" x="152.899502" y="500.329234" style="fill: #ffb5b8; stroke: #ffb5b8; stroke-linejoin: miter"/>
     <use xlink:href="#m76086e4b84" x="187.827208" y="500.329234" style="fill: #ffb5b8; stroke: #ffb5b8; stroke-linejoin: miter"/>
     <use xlink:href="#m76086e4b84" x="222.754913" y="496.733654" style="fill: #ffb5b8; stroke: #ffb5b8; stroke-linejoin: miter"/>
     <use xlink:href="#m76086e4b84" x="257.682619" y="500.329234" style="fill: #ffb5b8; stroke: #ffb5b8; stroke-linejoin: miter"/>
     <use xlink:href="#m76086e4b84" x="292.610325" y="498.531444" style="fill: #ffb5b8; stroke: #ffb5b8; stroke-linejoin: miter"/>
     <use xlink:href="#m76086e4b84" x="327.53803" y="500.329234" style="fill: #ffb5b8; stroke: #ffb5b8; stroke-linejoin: miter"/>
     <use xlink:href="#m76086e4b84" x="362.465736" y="500.329234" style="fill: #ffb5b8; stroke: #ffb5b8; stroke-linejoin: miter"/>
     <use xlink:href="#m76086e4b84" x="397.393442" y="500.329234" style="fill: #ffb5b8; stroke: #ffb5b8; stroke-linejoin: miter"/>
     <use xlink:href="#m76086e4b84" x="432.321147" y="502.127023" style="fill: #ffb5b8; stroke: #ffb5b8; stroke-linejoin: miter"/>
     <use xlink:href="#m76086e4b84" x="467.248853" y="502.127023" style="fill: #ffb5b8; stroke: #ffb5b8; stroke-linejoin: miter"/>
     <use xlink:href="#m76086e4b84" x="502.176558" y="503.924813" style="fill: #ffb5b8; stroke: #ffb5b8; stroke-linejoin: miter"/>
     <use xlink:href="#m76086e4b84" x="537.104264" y="505.722602" style="fill: #ffb5b8; stroke: #ffb5b8; stroke-linejoin: miter"/>
     <use xlink:href="#m76086e4b84" x="572.03197" y="507.520392" style="fill: #ffb5b8; stroke: #ffb5b8; stroke-linejoin: miter"/>
     <use xlink:href="#m76086e4b84" x="606.959675" y="505.722602" style="fill: #ffb5b8; stroke: #ffb5b8; stroke-linejoin: miter"/>
     <use xlink:href="#m76086e4b84" x="641.887381" y="503.924813" style="fill: #ffb5b8; stroke: #ffb5b8; stroke-linejoin: miter"/>
     <use xlink:href="#m76086e4b84" x="676.815087" y="505.722602" style="fill: #ffb5b8; stroke: #ffb5b8; stroke-linejoin: miter"/>
     <use xlink:href="#m76086e4b84" x="711.742792" y="507.520392" style="fill: #ffb5b8; stroke: #ffb5b8; stroke-linejoin: miter"/>
     <use xlink:href="#m76086e4b84" x="746.670498" y="507.520392" style="fill: #ffb5b8; stroke: #ffb5b8; stroke-linejoin: miter"/>
     <use xlink:href="#m76086e4b84" x="781.598203" y="509.318182" style="fill: #ffb5b8; stroke: #ffb5b8; stroke-linejoin: miter"/>
     <use xlink:href="#m76086e4b84" x="816.525909" y="509.318182" style="fill: #ffb5b8; stroke: #ffb5b8; stroke-linejoin: miter"/>
    </g>
   </g>
   <g id="patch_3">
    <path d="M 46.37 532.24 
L 46.37 27.96 
" style="fill: none; stroke: #ffffff; stroke-linejoin: miter; stroke-linecap: square"/>
   </g>
   <g id="patch_4">
    <path d="M 853.2 532.24 
L 853.2 27.96 
" style="fill: none; stroke: #ffffff; stroke-linejoin: miter; stroke-linecap: square"/>
   </g>
   <g id="patch_5">
    <path d="M 46.37 532.24 
L 853.2 532.24 
" style="fill: none; stroke: #ffffff; stroke-linejoin: miter; stroke-linecap: square"/>
   </g>
   <g id="patch_6">
    <path d="M 46.37 27.96 
L 853.2 27.96 
" style="fill: none; stroke: #ffffff; stroke-linejoin: miter; stroke-linecap: square"/>
   </g>
   <g id="text_13">
    <!-- Underlying cause of death, ages 15-24 years (US CDC) -->
    <g transform="translate(252.188875 21.96)scale(0.144 -0.144)">
     <defs>
      <path id="DejaVuSans-55" d="M 556 4666 
L 1191 4666 
L 1191 1831 
Q 1191 1081 1462 751 
Q 1734 422 2344 422 
Q 2950 422 3222 751 
Q 3494 1081 3494 1831 
L 3494 4666 
L 4128 4666 
L 4128 1753 
Q 4128 841 3676 375 
Q 3225 -91 2344 -91 
Q 1459 -91 1007 375 
Q 556 841 556 1753 
L 556 4666 
z
" transform="scale(0.015625)"/>
      <path id="DejaVuSans-6e" d="M 3513 2113 
L 3513 0 
L 2938 0 
L 2938 2094 
Q 2938 2591 2744 2837 
Q 2550 3084 2163 3084 
Q 1697 3084 1428 2787 
Q 1159 2491 1159 1978 
L 1159 0 
L 581 0 
L 581 3500 
L 1159 3500 
L 1159 2956 
Q 1366 3272 1645 3428 
Q 1925 3584 2291 3584 
Q 2894 3584 3203 3211 
Q 3513 2838 3513 2113 
z
" transform="scale(0.015625)"/>
      <path id="DejaVuSans-64" d="M 2906 2969 
L 2906 4863 
L 3481 4863 
L 3481 0 
L 2906 0 
L 2906 525 
Q 2725 213 2448 61 
Q 2172 -91 1784 -91 
Q 1150 -91 751 415 
Q 353 922 353 1747 
Q 353 2572 751 3078 
Q 1150 3584 1784 3584 
Q 2172 3584 2448 3432 
Q 2725 3281 2906 2969 
z
M 947 1747 
Q 947 1113 1208 752 
Q 1469 391 1925 391 
Q 2381 391 2643 752 
Q 2906 1113 2906 1747 
Q 2906 2381 2643 2742 
Q 2381 3103 1925 3103 
Q 1469 3103 1208 2742 
Q 947 2381 947 1747 
z
" transform="scale(0.015625)"/>
      <path id="DejaVuSans-6c" d="M 603 4863 
L 1178 4863 
L 1178 0 
L 603 0 
L 603 4863 
z
" transform="scale(0.015625)"/>
      <path id="DejaVuSans-79" d="M 2059 -325 
Q 1816 -950 1584 -1140 
Q 1353 -1331 966 -1331 
L 506 -1331 
L 506 -850 
L 844 -850 
Q 1081 -850 1212 -737 
Q 1344 -625 1503 -206 
L 1606 56 
L 191 3500 
L 800 3500 
L 1894 763 
L 2988 3500 
L 3597 3500 
L 2059 -325 
z
" transform="scale(0.015625)"/>
      <path id="DejaVuSans-69" d="M 603 3500 
L 1178 3500 
L 1178 0 
L 603 0 
L 603 3500 
z
M 603 4863 
L 1178 4863 
L 1178 4134 
L 603 4134 
L 603 4863 
z
" transform="scale(0.015625)"/>
      <path id="DejaVuSans-67" d="M 2906 1791 
Q 2906 2416 2648 2759 
Q 2391 3103 1925 3103 
Q 1463 3103 1205 2759 
Q 947 2416 947 1791 
Q 947 1169 1205 825 
Q 1463 481 1925 481 
Q 2391 481 2648 825 
Q 2906 1169 2906 1791 
z
M 3481 434 
Q 3481 -459 3084 -895 
Q 2688 -1331 1869 -1331 
Q 1566 -1331 1297 -1286 
Q 1028 -1241 775 -1147 
L 775 -588 
Q 1028 -725 1275 -790 
Q 1522 -856 1778 -856 
Q 2344 -856 2625 -561 
Q 2906 -266 2906 331 
L 2906 616 
Q 2728 306 2450 153 
Q 2172 0 1784 0 
Q 1141 0 747 490 
Q 353 981 353 1791 
Q 353 2603 747 3093 
Q 1141 3584 1784 3584 
Q 2172 3584 2450 3431 
Q 2728 3278 2906 2969 
L 2906 3500 
L 3481 3500 
L 3481 434 
z
" transform="scale(0.015625)"/>
      <path id="DejaVuSans-63" d="M 3122 3366 
L 3122 2828 
Q 2878 2963 2633 3030 
Q 2388 3097 2138 3097 
Q 1578 3097 1268 2742 
Q 959 2388 959 1747 
Q 959 1106 1268 751 
Q 1578 397 2138 397 
Q 2388 397 2633 464 
Q 2878 531 3122 666 
L 3122 134 
Q 2881 22 2623 -34 
Q 2366 -91 2075 -91 
Q 1284 -91 818 406 
Q 353 903 353 1747 
Q 353 2603 823 3093 
Q 1294 3584 2113 3584 
Q 2378 3584 2631 3529 
Q 2884 3475 3122 3366 
z
" transform="scale(0.015625)"/>
      <path id="DejaVuSans-75" d="M 544 1381 
L 544 3500 
L 1119 3500 
L 1119 1403 
Q 1119 906 1312 657 
Q 1506 409 1894 409 
Q 2359 409 2629 706 
Q 2900 1003 2900 1516 
L 2900 3500 
L 3475 3500 
L 3475 0 
L 2900 0 
L 2900 538 
Q 2691 219 2414 64 
Q 2138 -91 1772 -91 
Q 1169 -91 856 284 
Q 544 659 544 1381 
z
M 1991 3584 
L 1991 3584 
z
" transform="scale(0.015625)"/>
      <path id="DejaVuSans-6f" d="M 1959 3097 
Q 1497 3097 1228 2736 
Q 959 2375 959 1747 
Q 959 1119 1226 758 
Q 1494 397 1959 397 
Q 2419 397 2687 759 
Q 2956 1122 2956 1747 
Q 2956 2369 2687 2733 
Q 2419 3097 1959 3097 
z
M 1959 3584 
Q 2709 3584 3137 3096 
Q 3566 2609 3566 1747 
Q 3566 888 3137 398 
Q 2709 -91 1959 -91 
Q 1206 -91 779 398 
Q 353 888 353 1747 
Q 353 2609 779 3096 
Q 1206 3584 1959 3584 
z
" transform="scale(0.015625)"/>
      <path id="DejaVuSans-66" d="M 2375 4863 
L 2375 4384 
L 1825 4384 
Q 1516 4384 1395 4259 
Q 1275 4134 1275 3809 
L 1275 3500 
L 2222 3500 
L 2222 3053 
L 1275 3053 
L 1275 0 
L 697 0 
L 697 3053 
L 147 3053 
L 147 3500 
L 697 3500 
L 697 3744 
Q 697 4328 969 4595 
Q 1241 4863 1831 4863 
L 2375 4863 
z
" transform="scale(0.015625)"/>
      <path id="DejaVuSans-2d" d="M 313 2009 
L 1997 2009 
L 1997 1497 
L 313 1497 
L 313 2009 
z
" transform="scale(0.015625)"/>
      <path id="DejaVuSans-34" d="M 2419 4116 
L 825 1625 
L 2419 1625 
L 2419 4116 
z
M 2253 4666 
L 3047 4666 
L 3047 1625 
L 3713 1625 
L 3713 1100 
L 3047 1100 
L 3047 0 
L 2419 0 
L 2419 1100 
L 313 1100 
L 313 1709 
L 2253 4666 
z
" transform="scale(0.015625)"/>
      <path id="DejaVuSans-28" d="M 1984 4856 
Q 1566 4138 1362 3434 
Q 1159 2731 1159 2009 
Q 1159 1288 1364 580 
Q 1569 -128 1984 -844 
L 1484 -844 
Q 1016 -109 783 600 
Q 550 1309 550 2009 
Q 550 2706 781 3412 
Q 1013 4119 1484 4856 
L 1984 4856 
z
" transform="scale(0.015625)"/>
      <path id="DejaVuSans-53" d="M 3425 4513 
L 3425 3897 
Q 3066 4069 2747 4153 
Q 2428 4238 2131 4238 
Q 1616 4238 1336 4038 
Q 1056 3838 1056 3469 
Q 1056 3159 1242 3001 
Q 1428 2844 1947 2747 
L 2328 2669 
Q 3034 2534 3370 2195 
Q 3706 1856 3706 1288 
Q 3706 609 3251 259 
Q 2797 -91 1919 -91 
Q 1588 -91 1214 -16 
Q 841 59 441 206 
L 441 856 
Q 825 641 1194 531 
Q 1563 422 1919 422 
Q 2459 422 2753 634 
Q 3047 847 3047 1241 
Q 3047 1584 2836 1778 
Q 2625 1972 2144 2069 
L 1759 2144 
Q 1053 2284 737 2584 
Q 422 2884 422 3419 
Q 422 4038 858 4394 
Q 1294 4750 2059 4750 
Q 2388 4750 2728 4690 
Q 3069 4631 3425 4513 
z
" transform="scale(0.015625)"/>
      <path id="DejaVuSans-43" d="M 4122 4306 
L 4122 3641 
Q 3803 3938 3442 4084 
Q 3081 4231 2675 4231 
Q 1875 4231 1450 3742 
Q 1025 3253 1025 2328 
Q 1025 1406 1450 917 
Q 1875 428 2675 428 
Q 3081 428 3442 575 
Q 3803 722 4122 1019 
L 4122 359 
Q 3791 134 3420 21 
Q 3050 -91 2638 -91 
Q 1578 -91 968 557 
Q 359 1206 359 2328 
Q 359 3453 968 4101 
Q 1578 4750 2638 4750 
Q 3056 4750 3426 4639 
Q 3797 4528 4122 4306 
z
" transform="scale(0.015625)"/>
      <path id="DejaVuSans-29" d="M 513 4856 
L 1013 4856 
Q 1481 4119 1714 3412 
Q 1947 2706 1947 2009 
Q 1947 1309 1714 600 
Q 1481 -109 1013 -844 
L 513 -844 
Q 928 -128 1133 580 
Q 1338 1288 1338 2009 
Q 1338 2731 1133 3434 
Q 928 4138 513 4856 
z
" transform="scale(0.015625)"/>
     </defs>
     <use xlink:href="#DejaVuSans-55"/>
     <use xlink:href="#DejaVuSans-6e" x="73.193359"/>
     <use xlink:href="#DejaVuSans-64" x="136.572266"/>
     <use xlink:href="#DejaVuSans-65" x="200.048828"/>
     <use xlink:href="#DejaVuSans-72" x="261.572266"/>
     <use xlink:href="#DejaVuSans-6c" x="302.685547"/>
     <use xlink:href="#DejaVuSans-79" x="330.46875"/>
     <use xlink:href="#DejaVuSans-69" x="389.648438"/>
     <use xlink:href="#DejaVuSans-6e" x="417.431641"/>
     <use xlink:href="#DejaVuSans-67" x="480.810547"/>
     <use xlink:href="#DejaVuSans-20" x="544.287109"/>
     <use xlink:href="#DejaVuSans-63" x="576.074219"/>
     <use xlink:href="#DejaVuSans-61" x="631.054688"/>
     <use xlink:href="#DejaVuSans-75" x="692.333984"/>
     <use xlink:href="#DejaVuSans-73" x="755.712891"/>
     <use xlink:href="#DejaVuSans-65" x="807.8125"/>
     <use xlink:href="#DejaVuSans-20" x="869.335938"/>
     <use xlink:href="#DejaVuSans-6f" x="901.123047"/>
     <use xlink:href="#DejaVuSans-66" x="962.304688"/>
     <use xlink:href="#DejaVuSans-20" x="997.509766"/>
     <use xlink:href="#DejaVuSans-64" x="1029.296875"/>
     <use xlink:href="#DejaVuSans-65" x="1092.773438"/>
     <use xlink:href="#DejaVuSans-61" x="1154.296875"/>
     <use xlink:href="#DejaVuSans-74" x="1215.576172"/>
     <use xlink:href="#DejaVuSans-68" x="1254.785156"/>
     <use xlink:href="#DejaVuSans-2c" x="1318.164062"/>
     <use xlink:href="#DejaVuSans-20" x="1349.951172"/>
     <use xlink:href="#DejaVuSans-61" x="1381.738281"/>
     <use xlink:href="#DejaVuSans-67" x="1443.017578"/>
     <use xlink:href="#DejaVuSans-65" x="1506.494141"/>
     <use xlink:href="#DejaVuSans-73" x="1568.017578"/>
     <use xlink:href="#DejaVuSans-20" x="1620.117188"/>
     <use xlink:href="#DejaVuSans-31" x="1651.904297"/>
     <use xlink:href="#DejaVuSans-35" x="1715.527344"/>
     <use xlink:href="#DejaVuSans-2d" x="1779.150391"/>
     <use xlink:href="#DejaVuSans-32" x="1815.234375"/>
     <use xlink:href="#DejaVuSans-34" x="1878.857422"/>
     <use xlink:href="#DejaVuSans-20" x="1942.480469"/>
     <use xlink:href="#DejaVuSans-79" x="1974.267578"/>
     <use xlink:href="#DejaVuSans-65" x="2033.447266"/>
     <use xlink:href="#DejaVuSans-61" x="2094.970703"/>
     <use xlink:href="#DejaVuSans-72" x="2156.25"/>
     <use xlink:href="#DejaVuSans-73" x="2197.363281"/>
     <use xlink:href="#DejaVuSans-20" x="2249.462891"/>
     <use xlink:href="#DejaVuSans-28" x="2281.25"/>
     <use xlink:href="#DejaVuSans-55" x="2320.263672"/>
     <use xlink:href="#DejaVuSans-53" x="2393.457031"/>
     <use xlink:href="#DejaVuSans-20" x="2456.933594"/>
     <use xlink:href="#DejaVuSans-43" x="2488.720703"/>
     <use xlink:href="#DejaVuSans-44" x="2558.544922"/>
     <use xlink:href="#DejaVuSans-43" x="2635.546875"/>
     <use xlink:href="#DejaVuSans-29" x="2705.371094"/>
    </g>
   </g>
   <g id="legend_1">
    <g id="patch_7">
     <path d="M 598.4125 138.706875 
L 846.2 138.706875 
Q 848.2 138.706875 848.2 136.706875 
L 848.2 34.96 
Q 848.2 32.96 846.2 32.96 
L 598.4125 32.96 
Q 596.4125 32.96 596.4125 34.96 
L 596.4125 136.706875 
Q 596.4125 138.706875 598.4125 138.706875 
z
" style="fill: #e5e5e5; opacity: 0.8; stroke: #cccccc; stroke-width: 0.5; stroke-linejoin: miter"/>
    </g>
    <g id="line2d_28">
     <path d="M 600.4125 41.058437 
L 610.4125 41.058437 
L 620.4125 41.058437 
" style="fill: none; stroke: #e24a33; stroke-width: 3; stroke-linecap: square"/>
     <g>
      <use xlink:href="#m0ff8451ae9" x="610.4125" y="41.058437" style="fill: #e24a33; stroke: #e24a33"/>
     </g>
    </g>
    <g id="text_14">
     <!-- Motor Vehicle Traffic -->
     <g transform="translate(628.4125 44.558437)scale(0.1 -0.1)">
      <defs>
       <path id="DejaVuSans-4d" d="M 628 4666 
L 1569 4666 
L 2759 1491 
L 3956 4666 
L 4897 4666 
L 4897 0 
L 4281 0 
L 4281 4097 
L 3078 897 
L 2444 897 
L 1241 4097 
L 1241 0 
L 628 0 
L 628 4666 
z
" transform="scale(0.015625)"/>
       <path id="DejaVuSans-56" d="M 1831 0 
L 50 4666 
L 709 4666 
L 2188 738 
L 3669 4666 
L 4325 4666 
L 2547 0 
L 1831 0 
z
" transform="scale(0.015625)"/>
       <path id="DejaVuSans-54" d="M -19 4666 
L 3928 4666 
L 3928 4134 
L 2272 4134 
L 2272 0 
L 1638 0 
L 1638 4134 
L -19 4134 
L -19 4666 
z
" transform="scale(0.015625)"/>
      </defs>
      <use xlink:href="#DejaVuSans-4d"/>
      <use xlink:href="#DejaVuSans-6f" x="86.279297"/>
      <use xlink:href="#DejaVuSans-74" x="147.460938"/>
      <use xlink:href="#DejaVuSans-6f" x="186.669922"/>
      <use xlink:href="#DejaVuSans-72" x="247.851562"/>
      <use xlink:href="#DejaVuSans-20" x="288.964844"/>
      <use xlink:href="#DejaVuSans-56" x="320.751953"/>
      <use xlink:href="#DejaVuSans-65" x="381.410156"/>
      <use xlink:href="#DejaVuSans-68" x="442.933594"/>
      <use xlink:href="#DejaVuSans-69" x="506.3125"/>
      <use xlink:href="#DejaVuSans-63" x="534.095703"/>
      <use xlink:href="#DejaVuSans-6c" x="589.076172"/>
      <use xlink:href="#DejaVuSans-65" x="616.859375"/>
      <use xlink:href="#DejaVuSans-20" x="678.382812"/>
      <use xlink:href="#DejaVuSans-54" x="710.169922"/>
      <use xlink:href="#DejaVuSans-72" x="756.503906"/>
      <use xlink:href="#DejaVuSans-61" x="797.617188"/>
      <use xlink:href="#DejaVuSans-66" x="858.896484"/>
      <use xlink:href="#DejaVuSans-66" x="894.101562"/>
      <use xlink:href="#DejaVuSans-69" x="929.306641"/>
      <use xlink:href="#DejaVuSans-63" x="957.089844"/>
     </g>
    </g>
    <g id="line2d_29">
     <path d="M 600.4125 55.736562 
L 610.4125 55.736562 
L 620.4125 55.736562 
" style="fill: none; stroke: #348abd; stroke-width: 2; stroke-linecap: square"/>
     <g>
      <use xlink:href="#m30ae5eea46" x="610.4125" y="55.736562" style="fill: #348abd; stroke: #348abd"/>
     </g>
    </g>
    <g id="text_15">
     <!-- Firearm -->
     <g transform="translate(628.4125 59.236562)scale(0.1 -0.1)">
      <defs>
       <path id="DejaVuSans-46" d="M 628 4666 
L 3309 4666 
L 3309 4134 
L 1259 4134 
L 1259 2759 
L 3109 2759 
L 3109 2228 
L 1259 2228 
L 1259 0 
L 628 0 
L 628 4666 
z
" transform="scale(0.015625)"/>
       <path id="DejaVuSans-6d" d="M 3328 2828 
Q 3544 3216 3844 3400 
Q 4144 3584 4550 3584 
Q 5097 3584 5394 3201 
Q 5691 2819 5691 2113 
L 5691 0 
L 5113 0 
L 5113 2094 
Q 5113 2597 4934 2840 
Q 4756 3084 4391 3084 
Q 3944 3084 3684 2787 
Q 3425 2491 3425 1978 
L 3425 0 
L 2847 0 
L 2847 2094 
Q 2847 2600 2669 2842 
Q 2491 3084 2119 3084 
Q 1678 3084 1418 2786 
Q 1159 2488 1159 1978 
L 1159 0 
L 581 0 
L 581 3500 
L 1159 3500 
L 1159 2956 
Q 1356 3278 1631 3431 
Q 1906 3584 2284 3584 
Q 2666 3584 2933 3390 
Q 3200 3197 3328 2828 
z
" transform="scale(0.015625)"/>
      </defs>
      <use xlink:href="#DejaVuSans-46"/>
      <use xlink:href="#DejaVuSans-69" x="50.269531"/>
      <use xlink:href="#DejaVuSans-72" x="78.052734"/>
      <use xlink:href="#DejaVuSans-65" x="116.916016"/>
      <use xlink:href="#DejaVuSans-61" x="178.439453"/>
      <use xlink:href="#DejaVuSans-72" x="239.71875"/>
      <use xlink:href="#DejaVuSans-6d" x="279.082031"/>
     </g>
    </g>
    <g id="line2d_30">
     <path d="M 600.4125 70.414687 
L 610.4125 70.414687 
L 620.4125 70.414687 
" style="fill: none; stroke: #988ed5; stroke-linecap: square"/>
     <g>
      <use xlink:href="#m38c226b1ec" x="610.4125" y="70.414687" style="fill: #988ed5; stroke: #988ed5"/>
     </g>
    </g>
    <g id="text_16">
     <!-- Non-Injury: All other diseases (Residual) -->
     <g transform="translate(628.4125 73.914687)scale(0.1 -0.1)">
      <defs>
       <path id="DejaVuSans-4e" d="M 628 4666 
L 1478 4666 
L 3547 763 
L 3547 4666 
L 4159 4666 
L 4159 0 
L 3309 0 
L 1241 3903 
L 1241 0 
L 628 0 
L 628 4666 
z
" transform="scale(0.015625)"/>
       <path id="DejaVuSans-49" d="M 628 4666 
L 1259 4666 
L 1259 0 
L 628 0 
L 628 4666 
z
" transform="scale(0.015625)"/>
       <path id="DejaVuSans-6a" d="M 603 3500 
L 1178 3500 
L 1178 -63 
Q 1178 -731 923 -1031 
Q 669 -1331 103 -1331 
L -116 -1331 
L -116 -844 
L 38 -844 
Q 366 -844 484 -692 
Q 603 -541 603 -63 
L 603 3500 
z
M 603 4863 
L 1178 4863 
L 1178 4134 
L 603 4134 
L 603 4863 
z
" transform="scale(0.015625)"/>
       <path id="DejaVuSans-3a" d="M 750 794 
L 1409 794 
L 1409 0 
L 750 0 
L 750 794 
z
M 750 3309 
L 1409 3309 
L 1409 2516 
L 750 2516 
L 750 3309 
z
" transform="scale(0.015625)"/>
       <path id="DejaVuSans-41" d="M 2188 4044 
L 1331 1722 
L 3047 1722 
L 2188 4044 
z
M 1831 4666 
L 2547 4666 
L 4325 0 
L 3669 0 
L 3244 1197 
L 1141 1197 
L 716 0 
L 50 0 
L 1831 4666 
z
" transform="scale(0.015625)"/>
       <path id="DejaVuSans-52" d="M 2841 2188 
Q 3044 2119 3236 1894 
Q 3428 1669 3622 1275 
L 4263 0 
L 3584 0 
L 2988 1197 
Q 2756 1666 2539 1819 
Q 2322 1972 1947 1972 
L 1259 1972 
L 1259 0 
L 628 0 
L 628 4666 
L 2053 4666 
Q 2853 4666 3247 4331 
Q 3641 3997 3641 3322 
Q 3641 2881 3436 2590 
Q 3231 2300 2841 2188 
z
M 1259 4147 
L 1259 2491 
L 2053 2491 
Q 2509 2491 2742 2702 
Q 2975 2913 2975 3322 
Q 2975 3731 2742 3939 
Q 2509 4147 2053 4147 
L 1259 4147 
z
" transform="scale(0.015625)"/>
      </defs>
      <use xlink:href="#DejaVuSans-4e"/>
      <use xlink:href="#DejaVuSans-6f" x="74.804688"/>
      <use xlink:href="#DejaVuSans-6e" x="135.986328"/>
      <use xlink:href="#DejaVuSans-2d" x="199.365234"/>
      <use xlink:href="#DejaVuSans-49" x="235.449219"/>
      <use xlink:href="#DejaVuSans-6e" x="264.941406"/>
      <use xlink:href="#DejaVuSans-6a" x="328.320312"/>
      <use xlink:href="#DejaVuSans-75" x="356.103516"/>
      <use xlink:href="#DejaVuSans-72" x="419.482422"/>
      <use xlink:href="#DejaVuSans-79" x="460.595703"/>
      <use xlink:href="#DejaVuSans-3a" x="512.525391"/>
      <use xlink:href="#DejaVuSans-20" x="546.216797"/>
      <use xlink:href="#DejaVuSans-41" x="578.003906"/>
      <use xlink:href="#DejaVuSans-6c" x="646.412109"/>
      <use xlink:href="#DejaVuSans-6c" x="674.195312"/>
      <use xlink:href="#DejaVuSans-20" x="701.978516"/>
      <use xlink:href="#DejaVuSans-6f" x="733.765625"/>
      <use xlink:href="#DejaVuSans-74" x="794.947266"/>
      <use xlink:href="#DejaVuSans-68" x="834.15625"/>
      <use xlink:href="#DejaVuSans-65" x="897.535156"/>
      <use xlink:href="#DejaVuSans-72" x="959.058594"/>
      <use xlink:href="#DejaVuSans-20" x="1000.171875"/>
      <use xlink:href="#DejaVuSans-64" x="1031.958984"/>
      <use xlink:href="#DejaVuSans-69" x="1095.435547"/>
      <use xlink:href="#DejaVuSans-73" x="1123.21875"/>
      <use xlink:href="#DejaVuSans-65" x="1175.318359"/>
      <use xlink:href="#DejaVuSans-61" x="1236.841797"/>
      <use xlink:href="#DejaVuSans-73" x="1298.121094"/>
      <use xlink:href="#DejaVuSans-65" x="1350.220703"/>
      <use xlink:href="#DejaVuSans-73" x="1411.744141"/>
      <use xlink:href="#DejaVuSans-20" x="1463.84375"/>
      <use xlink:href="#DejaVuSans-28" x="1495.630859"/>
      <use xlink:href="#DejaVuSans-52" x="1534.644531"/>
      <use xlink:href="#DejaVuSans-65" x="1599.626953"/>
      <use xlink:href="#DejaVuSans-73" x="1661.150391"/>
      <use xlink:href="#DejaVuSans-69" x="1713.25"/>
      <use xlink:href="#DejaVuSans-64" x="1741.033203"/>
      <use xlink:href="#DejaVuSans-75" x="1804.509766"/>
      <use xlink:href="#DejaVuSans-61" x="1867.888672"/>
      <use xlink:href="#DejaVuSans-6c" x="1929.167969"/>
      <use xlink:href="#DejaVuSans-29" x="1956.951172"/>
     </g>
    </g>
    <g id="line2d_31">
     <path d="M 600.4125 85.092812 
L 610.4125 85.092812 
L 620.4125 85.092812 
" style="fill: none; stroke: #777777; stroke-width: 3; stroke-linecap: square"/>
     <g>
      <use xlink:href="#m163953217c" x="610.4125" y="85.092812" style="fill: #777777; stroke: #777777"/>
     </g>
    </g>
    <g id="text_17">
     <!-- Non-Injury: Malignant neoplasms (Cancers) -->
     <g transform="translate(628.4125 88.592812)scale(0.1 -0.1)">
      <use xlink:href="#DejaVuSans-4e"/>
      <use xlink:href="#DejaVuSans-6f" x="74.804688"/>
      <use xlink:href="#DejaVuSans-6e" x="135.986328"/>
      <use xlink:href="#DejaVuSans-2d" x="199.365234"/>
      <use xlink:href="#DejaVuSans-49" x="235.449219"/>
      <use xlink:href="#DejaVuSans-6e" x="264.941406"/>
      <use xlink:href="#DejaVuSans-6a" x="328.320312"/>
      <use xlink:href="#DejaVuSans-75" x="356.103516"/>
      <use xlink:href="#DejaVuSans-72" x="419.482422"/>
      <use xlink:href="#DejaVuSans-79" x="460.595703"/>
      <use xlink:href="#DejaVuSans-3a" x="512.525391"/>
      <use xlink:href="#DejaVuSans-20" x="546.216797"/>
      <use xlink:href="#DejaVuSans-4d" x="578.003906"/>
      <use xlink:href="#DejaVuSans-61" x="664.283203"/>
      <use xlink:href="#DejaVuSans-6c" x="725.5625"/>
      <use xlink:href="#DejaVuSans-69" x="753.345703"/>
      <use xlink:href="#DejaVuSans-67" x="781.128906"/>
      <use xlink:href="#DejaVuSans-6e" x="844.605469"/>
      <use xlink:href="#DejaVuSans-61" x="907.984375"/>
      <use xlink:href="#DejaVuSans-6e" x="969.263672"/>
      <use xlink:href="#DejaVuSans-74" x="1032.642578"/>
      <use xlink:href="#DejaVuSans-20" x="1071.851562"/>
      <use xlink:href="#DejaVuSans-6e" x="1103.638672"/>
      <use xlink:href="#DejaVuSans-65" x="1167.017578"/>
      <use xlink:href="#DejaVuSans-6f" x="1228.541016"/>
      <use xlink:href="#DejaVuSans-70" x="1289.722656"/>
      <use xlink:href="#DejaVuSans-6c" x="1353.199219"/>
      <use xlink:href="#DejaVuSans-61" x="1380.982422"/>
      <use xlink:href="#DejaVuSans-73" x="1442.261719"/>
      <use xlink:href="#DejaVuSans-6d" x="1494.361328"/>
      <use xlink:href="#DejaVuSans-73" x="1591.773438"/>
      <use xlink:href="#DejaVuSans-20" x="1643.873047"/>
      <use xlink:href="#DejaVuSans-28" x="1675.660156"/>
      <use xlink:href="#DejaVuSans-43" x="1714.673828"/>
      <use xlink:href="#DejaVuSans-61" x="1784.498047"/>
      <use xlink:href="#DejaVuSans-6e" x="1845.777344"/>
      <use xlink:href="#DejaVuSans-63" x="1909.15625"/>
      <use xlink:href="#DejaVuSans-65" x="1964.136719"/>
      <use xlink:href="#DejaVuSans-72" x="2025.660156"/>
      <use xlink:href="#DejaVuSans-73" x="2066.773438"/>
      <use xlink:href="#DejaVuSans-29" x="2118.873047"/>
     </g>
    </g>
    <g id="line2d_32">
     <path d="M 600.4125 99.770937 
L 610.4125 99.770937 
L 620.4125 99.770937 
" style="fill: none; stroke: #fbc15e; stroke-width: 2; stroke-linecap: square"/>
     <g>
      <use xlink:href="#m4ba5042f20" x="610.4125" y="99.770937" style="fill: #fbc15e; stroke: #fbc15e"/>
     </g>
    </g>
    <g id="text_18">
     <!-- Poisoning -->
     <g transform="translate(628.4125 103.270937)scale(0.1 -0.1)">
      <defs>
       <path id="DejaVuSans-50" d="M 1259 4147 
L 1259 2394 
L 2053 2394 
Q 2494 2394 2734 2622 
Q 2975 2850 2975 3272 
Q 2975 3691 2734 3919 
Q 2494 4147 2053 4147 
L 1259 4147 
z
M 628 4666 
L 2053 4666 
Q 2838 4666 3239 4311 
Q 3641 3956 3641 3272 
Q 3641 2581 3239 2228 
Q 2838 1875 2053 1875 
L 1259 1875 
L 1259 0 
L 628 0 
L 628 4666 
z
" transform="scale(0.015625)"/>
      </defs>
      <use xlink:href="#DejaVuSans-50"/>
      <use xlink:href="#DejaVuSans-6f" x="56.677734"/>
      <use xlink:href="#DejaVuSans-69" x="117.859375"/>
      <use xlink:href="#DejaVuSans-73" x="145.642578"/>
      <use xlink:href="#DejaVuSans-6f" x="197.742188"/>
      <use xlink:href="#DejaVuSans-6e" x="258.923828"/>
      <use xlink:href="#DejaVuSans-69" x="322.302734"/>
      <use xlink:href="#DejaVuSans-6e" x="350.085938"/>
      <use xlink:href="#DejaVuSans-67" x="413.464844"/>
     </g>
    </g>
    <g id="line2d_33">
     <path d="M 600.4125 114.449062 
L 610.4125 114.449062 
L 620.4125 114.449062 
" style="fill: none; stroke: #8eba42; stroke-linecap: square"/>
     <g>
      <use xlink:href="#ma00a9a388b" x="610.4125" y="114.449062" style="fill: #8eba42; stroke: #8eba42"/>
     </g>
    </g>
    <g id="text_19">
     <!-- Suffocation -->
     <g transform="translate(628.4125 117.949062)scale(0.1 -0.1)">
      <use xlink:href="#DejaVuSans-53"/>
      <use xlink:href="#DejaVuSans-75" x="63.476562"/>
      <use xlink:href="#DejaVuSans-66" x="126.855469"/>
      <use xlink:href="#DejaVuSans-66" x="162.060547"/>
      <use xlink:href="#DejaVuSans-6f" x="197.265625"/>
      <use xlink:href="#DejaVuSans-63" x="258.447266"/>
      <use xlink:href="#DejaVuSans-61" x="313.427734"/>
      <use xlink:href="#DejaVuSans-74" x="374.707031"/>
      <use xlink:href="#DejaVuSans-69" x="413.916016"/>
      <use xlink:href="#DejaVuSans-6f" x="441.699219"/>
      <use xlink:href="#DejaVuSans-6e" x="502.880859"/>
     </g>
    </g>
    <g id="line2d_34">
     <path d="M 600.4125 129.127187 
L 610.4125 129.127187 
L 620.4125 129.127187 
" style="fill: none; stroke: #ffb5b8; stroke-width: 3; stroke-linecap: square"/>
     <g>
      <use xlink:href="#m76086e4b84" x="610.4125" y="129.127187" style="fill: #ffb5b8; stroke: #ffb5b8; stroke-linejoin: miter"/>
     </g>
    </g>
    <g id="text_20">
     <!-- Non-Injury: Diseases of Heart -->
     <g transform="translate(628.4125 132.627187)scale(0.1 -0.1)">
      <defs>
       <path id="DejaVuSans-48" d="M 628 4666 
L 1259 4666 
L 1259 2753 
L 3553 2753 
L 3553 4666 
L 4184 4666 
L 4184 0 
L 3553 0 
L 3553 2222 
L 1259 2222 
L 1259 0 
L 628 0 
L 628 4666 
z
" transform="scale(0.015625)"/>
      </defs>
      <use xlink:href="#DejaVuSans-4e"/>
      <use xlink:href="#DejaVuSans-6f" x="74.804688"/>
      <use xlink:href="#DejaVuSans-6e" x="135.986328"/>
      <use xlink:href="#DejaVuSans-2d" x="199.365234"/>
      <use xlink:href="#DejaVuSans-49" x="235.449219"/>
      <use xlink:href="#DejaVuSans-6e" x="264.941406"/>
      <use xlink:href="#DejaVuSans-6a" x="328.320312"/>
      <use xlink:href="#DejaVuSans-75" x="356.103516"/>
      <use xlink:href="#DejaVuSans-72" x="419.482422"/>
      <use xlink:href="#DejaVuSans-79" x="460.595703"/>
      <use xlink:href="#DejaVuSans-3a" x="512.525391"/>
      <use xlink:href="#DejaVuSans-20" x="546.216797"/>
      <use xlink:href="#DejaVuSans-44" x="578.003906"/>
      <use xlink:href="#DejaVuSans-69" x="655.005859"/>
      <use xlink:href="#DejaVuSans-73" x="682.789062"/>
      <use xlink:href="#DejaVuSans-65" x="734.888672"/>
      <use xlink:href="#DejaVuSans-61" x="796.412109"/>
      <use xlink:href="#DejaVuSans-73" x="857.691406"/>
      <use xlink:href="#DejaVuSans-65" x="909.791016"/>
      <use xlink:href="#DejaVuSans-73" x="971.314453"/>
      <use xlink:href="#DejaVuSans-20" x="1023.414062"/>
      <use xlink:href="#DejaVuSans-6f" x="1055.201172"/>
      <use xlink:href="#DejaVuSans-66" x="1116.382812"/>
      <use xlink:href="#DejaVuSans-20" x="1151.587891"/>
      <use xlink:href="#DejaVuSans-48" x="1183.375"/>
      <use xlink:href="#DejaVuSans-65" x="1258.570312"/>
      <use xlink:href="#DejaVuSans-61" x="1320.09375"/>
      <use xlink:href="#DejaVuSans-72" x="1381.373047"/>
      <use xlink:href="#DejaVuSans-74" x="1422.486328"/>
     </g>
    </g>
   </g>
  </g>
 </g>
 <defs>
  <clipPath id="pa01baa7c75">
   <rect x="46.37" y="27.96" width="806.83" height="504.28"/>
  </clipPath>
 </defs>
</svg>
